<svg xmlns="http://www.w3.org/2000/svg" viewBox="0 0 4000 3000"><defs><clipPath id="a"><path fill="#009995" d="M2186.57,1655.0547c578.3187-1547.8529,1326.7311-1522.3388,436.5739,31.1839Z"/></clipPath><clipPath id="b"><path fill="#85d39b" d="M2102.3144,1676.0966c-12.4546-2012.0345,768.6713-2241.03,462.0629-114.4983Z"/></clipPath><clipPath id="c"><path fill="#009995" d="M2069.79,1787.5083c-363.34-1369.179,123.3506-1656.442,291.592-155.6407Z"/></clipPath><clipPath id="d"><path fill="#b8ca55" d="M2105.94,1697.1731c1116.7445-871.521,1571.962-536.6106,257.5887,207.1183Z"/></clipPath><clipPath id="e"><polygon fill="#77689b" points="2441.894 156.242 2198.386 579.615 1855.013 374.238 2441.894 156.242"/></clipPath><clipPath id="f"><path fill="#bc4b56" d="M1182.085,2168.9145c574.2832-14.593,685.1112-1030.2262,685.1112-1030.2262l1451.4686,30.7487c-21.2133,1001.356-696.4877,1430.7073-1523.6336,1255.758S1182.085,2168.9145,1182.085,2168.9145Z"/></clipPath><clipPath id="g"><rect width="1577.739" height="976.586" x="395.902" y="682.745" fill="#77689b" rx="64.271"/></clipPath><clipPath id="h"><rect width="295.488" height="198.735" x="1492.974" y="1240.292" fill="#9b5431" rx="54.613"/></clipPath><clipPath id="i"><path fill="#ffb99d" d="M3050.79,1498.0539l86.9761-8.6677c-215.2365,555.1607-103.2525,448.716-349.2694,398.736,33.6444-80.8342,166.5931-333.5618,125.1214-422.6371Z"/></clipPath><clipPath id="j"><path fill="#f08a38" d="M2638.3337,1635.6372c126.3635-12.4781,386.4525,81.6064,410.2339,127.0739l-260.0708,655.045L1612.4523,2393.625,1464.81,2345.9616c208.6762-215.2751,767.8913-97.7213,1096.7429-118.4057C2548.5707,2290.2711,2511.97,1648.1153,2638.3337,1635.6372Z"/></clipPath><clipPath id="k"><path fill="#ffb99d" d="M3272.6052,1544.0833l87.268,4.78c-294.9551,514.0018-168.7747,428.4641-404.7932,340.5379,44.9617-74.2834,214.4053-303.7435,186.7984-398.5633Z"/></clipPath><clipPath id="l"><path fill="#f2a938" d="M2900.5672,1618.7959c194.5857,50.49,450.6952,186.1932,376.2486,191.4867-119.8762,151.07-431.4866,701.86-517.5472,684.6737.3156-.0362-1152.08-31.6753-1152.5281-31.6923,37.5813-404.4683,206.3037-514.8047,399.95-463.57,170.9012,37.8209,604.4946,224.8192,642.75,195.796S2705.9815,1568.3056,2900.5672,1618.7959Z"/></clipPath><clipPath id="m"><path fill="#675048" d="M536.7374,2411.1835l-25.2665,21.0642c-12.2284-36.9507-181.2357-195.2857-132.3636-237.1529Z"/></clipPath><clipPath id="n"><path fill="#ffb99d" d="M946.1219,2313.6712c-342.2294-298.687-258.0148-292.036-523.0534-215.03-9.6,11.4462,8.8839,20.1787,22.4847,21.176,77.3915,5.6745,103.4591-11.6638,104.603-9.5878-125.114-2.9644-43.5186,41.6725,4.6516,40.4385,33.5953,71.9856,56.832,24.5231,113.0838,58.3831,61.3356,54.4635,170.7323,204.7692,182.1068,209.3024Z"/></clipPath><clipPath id="o"><path fill="#044e83" d="M762.905,2066.6229c-176.5648,264.0829,11.6089,289.5678,63.5957,385.9991-.56.9911,171.1338-96.4955,240.7918-125.0774S762.905,2066.6229,762.905,2066.6229Z"/></clipPath><clipPath id="p"><path fill="#2a71a4" d="M1779.9451,2038.5885c-.64-.4935-84.6168,423.017-85.4849,424.6739.5765.0016-120.364.0016-201.62.0016-211.0523,12.16-282.8889-70.1513-377.9454-318.0686-99.55-201.4333-195.25-431.4624,18.0087-472.0875C1409.24,1620.4668,1517.8432,2071.2088,1779.9451,2038.5885Z"/></clipPath><clipPath id="q"><polygon fill="#ffb99d" points="940.897 1652.953 1154.956 1748.595 1079.217 1927.994 838.054 1775.24 940.897 1652.953"/></clipPath><clipPath id="r"><path fill="#ffb99d" d="M812.498,2347.5634c-3.4672-1.0067-233.9127,28.1651-222.4263,22.9618-23.1342-10.3689-180.8021-123.0826-79.3283-8.1643-7.7449,16.0849-88.5273-41.96-87.8788,3.6994,24.7042,87.405,27.0934,125.7171,130.1523,115.81,218.3786-34.7193,492.3569-6.432,495.6368-4.418Z"/></clipPath><clipPath id="s"><path fill="#2a71a4" d="M655.8716,2328.93c-15.7813,56.52,5.28,209.2026,77.7115,195.05,101.7651-17.1993,448.8873,75.4907,484.7935-106.2233,34.3429-173.8022,174.5582-557.3852-9.7349-694.2246-268.7678-199.5627-202.268,258.67-249.3046,517.4377C946.1219,2313.6712,721.5845,2306.3753,655.8716,2328.93Z"/></clipPath><clipPath id="t"><path fill="#ffb99d" d="M954.0049,1496.3562c-117.0123-50.4573-157.6831,26.6333-157.6831,26.6333s-34.2626,35.7419-18.194,77.3593-64.3919,208.8541,36.8914,228.037,181.3069-46.5429,175.984-146.6655S954.0049,1496.3562,954.0049,1496.3562Z"/></clipPath><clipPath id="u"><path fill="#68222a" d="M931.0749,1710.0113c7.4223,25.18,135.4766,46.97,123.2407-24.3628,26.7287.6483,52.9812-153.62-16.2406-167.9075,31.5659-15.2-24.8472-114.2508-64.3523-73.6362-40.046-37.5181-94.0225-47.9477-96.0569-6.2076-54.7476-20.652-63.836-7.0943-55.41,20.1248-50.9809-11.2669-62.6424,25.6253-53.3589,45.0662-61.1643,15.9341-36.89,95.5523,27.0943,55.0549l26.9709-2.8987s21.992,43.6651,33.6015,41,18.9216-9.2888,45.3933-12.048,31.2737,82.301,31.4047,85.1638S931.0749,1710.0113,931.0749,1710.0113Z"/></clipPath><clipPath id="v"><path fill="#fff" d="M796.5552,1625.2322c-9.2033,49.9669,37.0017,59.1816,48.702,13.4055C854.46,1588.6722,808.2553,1579.4575,796.5552,1625.2322Z"/></clipPath><clipPath id="w"><path fill="#ffb99d" d="M787.3468,1620.4668c-24.1225,22.3966-41.6506,24.6562-43.4558,35.0947s12.1127,29.056,34.9123,31.8434"/></clipPath></defs><path fill="#009995" d="M2186.57,1655.0547c578.3187-1547.8529,1326.7311-1522.3388,436.5739,31.1839Z"/><g clip-path="url(#a)"><path fill="none" stroke="#00757d" stroke-miterlimit="10" stroke-width="5.586" d="M3187.2878,507.5336c-107.726,110.561-731.403,1292.1008-731.403,1292.1008"/><path fill="none" stroke="#00757d" stroke-miterlimit="10" stroke-width="5.586" d="M3056.8826,404.8658C2869.78,634.4924,2419.0311,1740.1016,2419.0311,1740.1016"/><path fill="none" stroke="#00757d" stroke-miterlimit="10" stroke-width="5.586" d="M2923.6425,450.2242c-102.0562,172.9286-586.8233,1258.6935-586.8233,1258.6935"/><path fill="#85d39b" stroke="#2caa7e" stroke-miterlimit="10" stroke-width="5.586" d="M2722.3649,455.894c-21.452,233.5017-504.6113,1321.0612-504.6113,1321.0612"/><path fill="#00757d" d="M2510.9973,778.7124c241.7014-223.6641,206.2358,248.9165,124.7628,479.7955s311.7428-281.3838,376.6776-108.2246-541.1228,346.3186-541.1228,346.3186l-102.3514-115.4395"/></g><path fill="#85d39b" d="M2102.3144,1676.0966c-12.4546-2012.0345,768.6713-2241.03,462.0629-114.4983Z"/><g clip-path="url(#b)"><path fill="#85d39b" stroke="#2caa7e" stroke-miterlimit="10" stroke-width="5.586" d="M2682.3932-13.3883c-67.5413,166.6895-245.78,1765.5862-245.78,1765.5862"/><path fill="#85d39b" stroke="#2caa7e" stroke-miterlimit="10" stroke-width="5.586" d="M2507.6867-88.4719c-102.5319,333.53-132.441,1783.7245-132.441,1783.7245"/><path fill="#85d39b" stroke="#2caa7e" stroke-miterlimit="10" stroke-width="5.586" d="M2388.2335,10.7127c-37.1892,237.74-109.9471,1676.47-109.9471,1676.47"/><path fill="#85d39b" stroke="#2caa7e" stroke-miterlimit="10" stroke-width="5.586" d="M2183.0828,86.9688c69.6635,280.77-.7326,1721.0454-.7326,1721.0454"/><path fill="#2caa7e" d="M2149.808,1009.5914c126.7027-277.7763,226.7368,120.8658,219.1555,371.571s365.6964-306.469,209.0071,48.1752-332.3239,176.29-332.3239,176.29L2136.6205,1268.93"/></g><path fill="#009995" d="M2069.79,1787.5083c-363.34-1369.179,123.3506-1656.442,291.592-155.6407Z"/><g clip-path="url(#c)"><path fill="none" stroke="#00757d" stroke-miterlimit="10" stroke-width="5.586" d="M2163.1788,538.6386c-16.17,124.9486,145.6136,1244.588,145.6136,1244.588"/><path fill="none" stroke="#00757d" stroke-miterlimit="10" stroke-width="5.586" d="M2032.0453,516.8095c-10.35,244.5327,225.2924,1237.9138,225.2924,1237.9138"/><path fill="none" stroke="#00757d" stroke-miterlimit="10" stroke-width="5.586" d="M1968.9377,604.47c16.8443,168.2738,221.55,1161.0383,221.55,1161.0383"/><path fill="none" stroke="#00757d" stroke-miterlimit="10" stroke-width="5.586" d="M1843.9584,690.8974c96.5372,179.6542,303.1094,1173.0748,303.1094,1173.0748"/><path fill="#00757d" d="M2245.6467,1605.6281c-157.126-12.2316,165.0769-177.3656,165.0769-177.3656l24.5165,75.5544"/></g><path fill="#b8ca55" d="M2105.94,1697.1731c1116.7445-871.521,1571.962-536.6106,257.5887,207.1183Z"/><g clip-path="url(#d)"><path fill="none" stroke="#a3b239" stroke-miterlimit="10" stroke-width="5.586" d="M3291.2684,1292.9546c-121.2705,34.1627-1087.595,622.3664-1087.595,622.3664"/><path fill="none" stroke="#a3b239" stroke-miterlimit="10" stroke-width="5.586" d="M3259.8834,1163.7747c-228.9767,86.4469-1050.1866,693.0335-1050.1866,693.0335"/><path fill="none" stroke="#a3b239" stroke-miterlimit="10" stroke-width="5.586" d="M3154.489,1140.1319c-148.1635,81.5316-980.947,659.4223-980.947,659.4223"/><path fill="none" stroke="#a3b239" stroke-miterlimit="10" stroke-width="5.586" d="M3025.9476,1059.0974c-127.3557,159.2971-960.01,739.1617-960.01,739.1617"/><path fill="#a3b239" d="M2720.2314,1731.0884c-614.2918-33.9153,335.4961-266.9539,335.4961-266.9539l-147.9069,274.1689"/></g><path fill="#00757d" d="M2958.5249,775.3045q-11.9176,11.0256-24.7728,20.9678l2.008-1.5513a366.2061,366.2061,0,0,1-44.8536,29.6449q-6.5982,3.6923-13.3458,7.107a9.9229,9.9229,0,1,0,10.015,17.1335,376.8137,376.8137,0,0,0,68.2132-44.67q8.6049-7.0423,16.7669-14.6015c3.8191-3.5333,3.8437-10.5024,0-14.0308a10.135,10.135,0,0,0-14.0309,0Z"/><path fill="#00757d" d="M2773.3993,1077.4034l-14.5464,10.6635a9.5569,9.5569,0,0,0-4.7367,9.8856,7.3845,7.3845,0,0,0,1.1774,3.6887,10.0141,10.0141,0,0,0,5.9293,4.5594c2.4469.5574,5.53.55,7.6449-1l14.5465-10.6635a9.557,9.557,0,0,0,4.7366-9.8856,7.3844,7.3844,0,0,0-1.1773-3.6887,10.0144,10.0144,0,0,0-5.9293-4.5594c-2.447-.5574-5.53-.55-7.645,1Z"/><path fill="#00757d" d="M2089.1211,825.8092l-14.43,14.43a10.236,10.236,0,0,0-2.9059,7.0154,10.0967,10.0967,0,0,0,2.9059,7.0155,9.9828,9.9828,0,0,0,7.0155,2.9058,10.3408,10.3408,0,0,0,7.0154-2.9058l14.43-14.43a10.2356,10.2356,0,0,0,2.9059-7.0154,10.0963,10.0963,0,0,0-2.9059-7.0155,9.9826,9.9826,0,0,0-7.0154-2.9058,10.3408,10.3408,0,0,0-7.0154,2.9058Z"/><path fill="#00757d" d="M2054.8245,1367.8592a108.5175,108.5175,0,0,1-5.9181,18.696l1-2.37a109.2531,109.2531,0,0,1-14.0717,24.1117l1.5513-2.008q-2.95,3.7964-6.2187,7.3227a10.3837,10.3837,0,0,0-2.9059,7.0154,10.0963,10.0963,0,0,0,2.9059,7.0154,9.9213,9.9213,0,0,0,14.0309,0,119.7988,119.7988,0,0,0,25.2427-42.0506,107.447,107.447,0,0,0,3.5172-12.4577,10.5013,10.5013,0,0,0-1-7.6449,9.9207,9.9207,0,0,0-13.5743-3.5593,9.9578,9.9578,0,0,0-4.5594,5.9293Z"/><path fill="#2caa7e" d="M2498.7142,1087.509l-39.6845,25.2491a10.4252,10.4252,0,0,0-4.5594,5.9293,10.14,10.14,0,0,0,1,7.6449c2.8221,4.3773,8.89,6.5395,13.5743,3.5593l39.6845-25.249a10.426,10.426,0,0,0,4.5594-5.9293,10.1394,10.1394,0,0,0-1-7.645c-2.822-4.3773-8.89-6.5395-13.5742-3.5593Z"/><path fill="#2caa7e" d="M2348.66,676.8017c5.19,0,10.1614-4.5634,9.9214-9.9213a10.0941,10.0941,0,0,0-9.9214-9.9213c-5.19,0-10.1613,4.5633-9.9213,9.9213a10.0941,10.0941,0,0,0,9.9213,9.9213Z"/><path fill="#a3b239" d="M2919.4062,1327.7116q-27.4449,9.5478-55.4647,17.3168-28.0032,7.7568-56.4694,13.69-15.9867,3.3316-32.0873,6.0791c-2.3111.395-4.7913,2.6149-5.9292,4.5594a9.9208,9.9208,0,0,0,3.5592,13.5743,11.29,11.29,0,0,0,7.645,1q28.6431-4.8951,56.93-11.6253,28.2669-6.7329,56.0584-15.2862,15.6077-4.8041,31.0327-10.1746a10.5718,10.5718,0,0,0,5.9293-4.5594,9.9209,9.9209,0,0,0-3.5593-13.5743,9.8776,9.8776,0,0,0-7.645-1Z"/><path fill="#a3b239" d="M2392.0108,1586.43l72.9818-8.1446,20.8519-2.327c2.7115-.3026,5.0151-.9055,7.0155-2.9059a9.9213,9.9213,0,0,0,0-14.0309c-1.8141-1.6653-4.4546-3.1917-7.0155-2.9059l-72.9818,8.1446-20.8519,2.327c-2.7115.3026-5.0151.9055-7.0155,2.9059a9.9213,9.9213,0,0,0,0,14.0309c1.8141,1.6653,4.4546,3.1917,7.0155,2.9059Z"/><path fill="none" stroke="url(#未命名的渐变_3)" stroke-miterlimit="10" stroke-width="9.721" d="M1648.6233,1842.2693c-55.4485-262.6391,248.5857-340.84,783.2569-196.8869,722.3981,194.4962,762.7479-736.85,4.9417-1183.3162"/><polygon fill="#5e4f8e" points="2153.987 402.386 2425.396 465.392 2337.6 354.416 2153.987 402.386"/><polygon fill="#77689b" points="2441.894 156.242 2198.386 579.615 1855.013 374.238 2441.894 156.242"/><g clip-path="url(#e)"><path fill="#5e4f8e" d="M1944.23,427.6c242.6645,135.336,253.7191,120.173,279.613,87.668s58.6014-81.799,58.6014-81.799l-20.7407,142.2393-113.25,38.3169L1928.7112,492.6879,1944.23,427.6"/></g><polygon fill="#5e4f8e" points="1855.013 374.238 2354.63 307.962 2425.396 465.392 2313.367 377.52 1855.013 374.238"/><path fill="#5e4f8e" d="M2158.3368,429.5924a91.879,91.879,0,0,1-6.2782,22.4669l1.47-3.4831a92.0391,92.0391,0,0,1-11.7939,20.1269l2.28-2.951q-.3926.5031-.79,1.0023a16.2226,16.2226,0,0,0-4.2706,10.31,14.8379,14.8379,0,0,0,4.2706,10.31c2.7788,2.5508,6.4269,4.4446,10.31,4.2706,3.6069-.1615,7.9563-1.3124,10.31-4.2706a105.3517,105.3517,0,0,0,22.6115-50.03,11.0449,11.0449,0,0,0,.26-5.8143,10.852,10.852,0,0,0-1.73-5.4211,14.8607,14.8607,0,0,0-8.714-6.7008c-3.7325-.85-7.9222-.6662-11.2354,1.47-2.9619,1.9095-6.1688,5.0592-6.7008,8.714Z"/><path fill="#bc4b56" d="M1182.085,2168.9145c574.2832-14.593,685.1112-1030.2262,685.1112-1030.2262l1451.4686,30.7487c-21.2133,1001.356-696.4877,1430.7073-1523.6336,1255.758S1182.085,2168.9145,1182.085,2168.9145Z"/><g clip-path="url(#f)"><path fill="#e77479" d="M738.7246,2080.9712c1700.3785,850.1085,2421.1-209.3241,2421.1-209.3241L3034.528,2719.9934l-1567.89,120.0959L1354.04,2446.873"/></g><rect width="26.579" height="630.594" x="2547.831" y="997.911" fill="#e77479" transform="rotate(-88.786 2561.12 1313.208)"/><rect width="26.579" height="630.594" x="2474.565" y="1158.541" fill="#e77479" transform="rotate(-88.786 2487.854 1473.838)"/><rect width="26.579" height="970.354" x="2535.889" y="908.882" fill="#e77479" transform="rotate(-88.786 2549.178 1394.059)"/><rect width="26.579" height="970.354" x="2432.047" y="1099.862" fill="#e77479" transform="rotate(-88.786 2445.336 1585.039)"/><rect width="26.579" height="471.459" x="2056.904" y="1566.786" fill="#e77479" transform="rotate(-88.785 2070.229 1802.465)"/><rect width="26.579" height="732.86" x="2114.012" y="1579.201" fill="#e77479" transform="rotate(-88.785 2127.34 1945.579)"/><rect width="26.579" height="250.706" x="2773.289" y="1692.339" fill="#e77479" transform="rotate(-88.786 2786.579 1817.692)"/><rect width="26.579" height="471.459" x="1843.594" y="1825.829" fill="#e77479" transform="rotate(-88.786 1856.883 2061.558)"/><rect width="26.579" height="250.706" x="2559.98" y="1951.381" fill="#e77479" transform="rotate(-88.786 2573.269 2076.735)"/><rect width="26.579" height="250.706" x="2724.524" y="1815.324" fill="#e77479" transform="rotate(-88.786 2737.814 1940.677)"/><path fill="#e77479" d="M1976.8975,2224.7048l-60.054,22.531"/><path fill="#e77479" d="M3193.0161,1248.647l-67.5647,45.0431"/><path fill="#e77479" d="M2097.2149,1669.7161l-60.096,22.4182"/><rect width="1577.739" height="976.586" x="395.902" y="682.745" fill="#77689b" rx="64.271"/><g clip-path="url(#g)"><rect width="1665.263" height="179.655" x="342.927" y="867.006" fill="#5e4f8e"/><path fill="#5e4f8e" d="M331.4276,1619.407c1527.94-5.2559,1567.8618,54.0361,1605.0377-35.1856s-3.5044-440.3923,52.5668-448.79,17.5222,671.4649,17.5222,671.4649L251.28,1803.3913"/></g><rect width="295.488" height="198.735" x="1492.974" y="1240.292" fill="#9b5431" rx="54.613"/><g clip-path="url(#h)"><polygon fill="#f4ab37" points="1798.227 1334.778 1594.371 1334.778 1594.371 1235.12 1582.524 1235.12 1582.524 1334.778 1483.209 1334.778 1483.209 1344.541 1689.677 1344.541 1689.677 1444.2 1701.526 1444.2 1701.526 1344.541 1798.227 1344.541 1798.227 1334.778"/></g><circle cx="671.616" cy="1342.93" r="122.952" fill="#bc4b56"/><circle cx="871.649" cy="1342.93" r="122.952" fill="#f4ab37"/><path fill="#5e4f8e" d="M807.3165,760.69a28.24,28.24,0,0,1-1.1929,3.4705l1.4116-3.3449a28.53,28.53,0,0,1-3.5715,6.0951l2.1895-2.8339a28.7622,28.7622,0,0,1-4.9933,4.9994l2.8339-2.19a27.8387,27.8387,0,0,1-4.4387,2.7809,13.488,13.488,0,0,0-6.685,13.9518,10.4219,10.4219,0,0,0,1.6616,5.2061c1.9276,2.99,4.7979,5.6217,8.3683,6.4349l3.7224.5a13.9373,13.9373,0,0,0,7.0672-1.9118,43.8993,43.8993,0,0,0,7.6847-5.295,27.7419,27.7419,0,0,0,4.1738-4.16,45.507,45.507,0,0,0,5.2762-7.5449c.9578-1.8473,1.7327-3.8011,2.5035-5.7283a27.4685,27.4685,0,0,0,.9931-2.9855,10.6074,10.6074,0,0,0,.25-5.5836,10.4207,10.4207,0,0,0-1.6617-5.2061,15.666,15.666,0,0,0-8.3682-6.4349c-3.5845-.8165-7.6079-.64-10.79,1.4115a14.5774,14.5774,0,0,0-6.4349,8.3683Z"/><path fill="#5e4f8e" d="M1361.0943,1371.37q-2.8159,2.2522-5.6674,4.4595l2.8339-2.1894a429.3511,429.3511,0,0,1-65.6811,41.8265q-9.8158,5.06-19.8838,9.6073c-3.0047,1.3588-5.5964,5.3232-6.4349,8.3683a14.31,14.31,0,0,0,1.4115,10.79c1.9276,2.99,4.7979,5.6217,8.3683,6.4349l3.7224.5a13.9378,13.9378,0,0,0,7.0673-1.9117,429.1165,429.1165,0,0,0,72.5429-41.7547c7.3281-5.2337,14.4913-10.7038,21.5233-16.3281,2.62-2.0954,4.1012-6.7071,4.1012-9.9012a14.2493,14.2493,0,0,0-4.1012-9.9012c-2.6685-2.45-6.1719-4.2682-9.9012-4.1012l-3.7224.5a13.99,13.99,0,0,0-6.1788,3.601Z"/><path fill="#ffb99d" d="M3050.79,1498.0539l86.9761-8.6677c-215.2365,555.1607-103.2525,448.716-349.2694,398.736,33.6444-80.8342,166.5931-333.5618,125.1214-422.6371Z"/><g clip-path="url(#i)"><path fill="#e98076" d="M2852.3,1668.6549c129.8423,35.0015,200.2165,45.6026,225.9632-3.2487,24.5323,138.8268-113.3342,78.3207-175.1926,71.8972"/></g><path fill="#675048" d="M3313.1813,1210.3967c34.6236,91.3207-43.4233,86.235-118.462,181.0167s-74.4546,188.4755-74.4546,188.4755l-203.818-7.4131-8.2382-110.8271c-10.7586-23.5461,1.1222-51.8547,26.2315-62.5024Z"/><path fill="#f08a38" d="M2638.3337,1635.6372c126.3635-12.4781,386.4525,81.6064,410.2339,127.0739l-260.0708,655.045L1612.4523,2393.625,1464.81,2345.9616c208.6762-215.2751,767.8913-97.7213,1096.7429-118.4057C2548.5707,2290.2711,2511.97,1648.1153,2638.3337,1635.6372Z"/><g clip-path="url(#j)"><path fill="#f08a38" d="M2892.03,1649.521c211.4323,57.5693-190.0387,624.1431-190.0387,624.1431l332.3654-17.1348,240.0805-553.8975"/></g><path fill="#ffb99d" d="M3272.6052,1544.0833l87.268,4.78c-294.9551,514.0018-168.7747,428.4641-404.7932,340.5379,44.9617-74.2834,214.4053-303.7435,186.7984-398.5633Z"/><g clip-path="url(#k)"><path fill="#e98076" d="M3099.5119,1659.1445c63.6894,14.2017,152.1455,68.3752,189.6145,40.8668,9.9,110.8882-68.6869,70.63-112.4306,80.9219-10.4251-17.1055-77.7324-108.2371-77.1839-121.7887"/></g><path fill="#675048" d="M3627.0993,1316.14c20.5862,95.5818-83.2741,69.2957-171.6032,151.4689s-126.4389,168.0281-126.4389,168.0281L3128.6956,1597.03l10.7659-108.8578c-7.1181-24.9258,8.8536-51.0848,35.2637-57.7563Z"/><path fill="#f2a938" d="M2900.5672,1618.7959c194.5857,50.49,450.6952,186.1932,376.2486,191.4867-119.8762,151.07-431.4866,701.86-517.5472,684.6737.3156-.0362-1152.08-31.6753-1152.5281-31.6923,37.5813-404.4683,206.3037-514.8047,399.95-463.57,170.9012,37.8209,604.4946,224.8192,642.75,195.796S2705.9815,1568.3056,2900.5672,1618.7959Z"/><g clip-path="url(#l)"><path fill="#f08a38" d="M2134.3343,2056.3925c-423.8557-128.4481-431.3244,364.954-436.91,410.4108,5.6434,61.8745-62.0681-339.39-63.25-338.0308-.5945.8837,90.3514-210.5457,91.307-213.1429,113.2952,14.5045,383.8174,39.4063,497.6236,49.3614"/><path fill="#f2a938" d="M2987.8717,1720.0374c164.5373-.1786,256.6782,198.291,256.6782,198.291"/><path fill="none" stroke="#f08a38" stroke-linecap="round" stroke-linejoin="round" stroke-width="17.531" d="M1664.9916,2355.2252c1377.19-30.8289,896.6591,197.8007,1472.7746-564.7513"/><path fill="#9b5431" d="M2996.0985,2461.9827c-6.4927-139.08-250.3216-131.8218-255.0328.0081C2747.5585,2601.0626,2991.3873,2593.8045,2996.0985,2461.9827Z"/></g><path fill="#675048" d="M536.7374,2411.1835l-25.2665,21.0642c-12.2284-36.9507-181.2357-195.2857-132.3636-237.1529Z"/><g clip-path="url(#m)"><path fill="#019793" d="M551.6069,2403.9715,526.34,2425.0357c-12.1557-36.8648-181.281-195.3456-132.3733-237.141C393.3794,2186.999,550.3231,2402.2583,551.6069,2403.9715Z"/></g><path fill="#ffb99d" d="M946.1219,2313.6712c-342.2294-298.687-258.0148-292.036-523.0534-215.03-9.6,11.4462,8.8839,20.1787,22.4847,21.176,77.3915,5.6745,103.4591-11.6638,104.603-9.5878-125.114-2.9644-43.5186,41.6725,4.6516,40.4385,33.5953,71.9856,56.832,24.5231,113.0838,58.3831,61.3356,54.4635,170.7323,204.7692,182.1068,209.3024Z"/><g clip-path="url(#n)"><path fill="#e98076" d="M595.9325,2199.7279c56.1484,35.6193,98.6351-63.8035,132.2436-66.5634s15.223,73.8192,15.223,73.8192l-88.85,34.3"/></g><path fill="#044e83" d="M762.905,2066.6229c-176.5648,264.0829,11.6089,289.5678,63.5957,385.9991-.56.9911,171.1338-96.4955,240.7918-125.0774S762.905,2066.6229,762.905,2066.6229Z"/><g clip-path="url(#o)"><path fill="#044e83" d="M898.6623,2215.4352c26.326,80.913-202.1557,104.99-202.1557,104.99,78.5881,29.3287,244.7957,69.6566,328.1606,50.8558L913.4707,2185.5325"/></g><path fill="#2a71a4" d="M1779.9451,2038.5885c-.64-.4935-84.6168,423.017-85.4849,424.6739.5765.0016-120.364.0016-201.62.0016-211.0523,12.16-282.8889-70.1513-377.9454-318.0686-99.55-201.4333-195.25-431.4624,18.0087-472.0875C1409.24,1620.4668,1517.8432,2071.2088,1779.9451,2038.5885Z"/><g clip-path="url(#p)"><path fill="#044e83" d="M1227.4655,1826.9145c208.1-239.4205,133.132,807.0011,520.2275,657.4577-30.4246,35.2373-331.3158,97.2448-332.304,97.6373.6119.3037-295.8678-146.559-327.862-162.4076-71.3477-146.9933,64.094-444.1169,88.62-568.3333"/></g><polygon fill="#ffb99d" points="940.897 1652.953 1154.956 1748.595 1079.217 1927.994 838.054 1775.24 940.897 1652.953"/><g clip-path="url(#q)"><path fill="#e98076" d="M931.0888,1739.7246c-16.7649,107.0616,41.0341,97.09,84.5367,131.4772-114.5363,52.23-148.6206-30.4734-193.4947-67.9515l88.0254-102.2232"/></g><path fill="#ffb99d" d="M910.1562,1639.5069c55.6873-117.378,142.7953-6.7965,44.87,46.2138"/><path fill="#2a71a4" d="M997.3878,1936.494c12.4227-124.0711-32.6273-384.1442,141.21-229.391Z"/><path fill="#ffb99d" d="M812.498,2347.5634c-3.4672-1.0067-233.9127,28.1651-222.4263,22.9618-23.1342-10.3689-180.8021-123.0826-79.3283-8.1643-7.7449,16.0849-88.5273-41.96-87.8788,3.6994,24.7042,87.405,27.0934,125.7171,130.1523,115.81,218.3786-34.7193,492.3569-6.432,495.6368-4.418Z"/><g clip-path="url(#r)"><path fill="#e98076" d="M664.73,2358.0359c-54.408,3.7267-29.5406,129.002-49.2973,144.0566,115.4284,18.6328,56.4137-85.0046,64.5864-129.545"/></g><path fill="#2a71a4" d="M655.8716,2328.93c-15.7813,56.52,5.28,209.2026,77.7115,195.05,101.7651-17.1993,448.8873,75.4907,484.7935-106.2233,34.3429-173.8022,174.5582-557.3852-9.7349-694.2246-268.7678-199.5627-202.268,258.67-249.3046,517.4377C946.1219,2313.6712,721.5845,2306.3753,655.8716,2328.93Z"/><g clip-path="url(#s)"><path fill="#044e83" d="M1327.69,2477.4742c-6.9313-163.5911-263.3879-155.3487-268.1958.0079C1066.4256,2641.0653,1322.8821,2632.8229,1327.69,2477.4742Z"/></g><path fill="#f2a938" d="M1110.6689,1805.0294c8.417,49.6152,41.4014,19.8772,50.8318,46.5766-45.82,26.1821,8.365,89.351-53.0423,50.7486-42.8872,20.0113-37.3322,22.5189-35.6992-27.7453-1.0547-8.5273-32.5431-17.6807-19.2444-32.2936C1100.2559,1849.0779,1083.9928,1806.3525,1110.6689,1805.0294Z"/><path fill="#3a2921" d="M952.647,1636.3772a5.0225,5.0225,0,0,1,.651-1.0995l-1.4392,1.8628a6.4621,6.4621,0,0,1,1.0828-1.06l-1.8627,1.4392a9.1678,9.1678,0,0,1,1.9969-1.1376l-2.1987.9278a13.0538,13.0538,0,0,1,3.2332-.85l-2.4467.3288a14.83,14.83,0,0,1,3.8518.0079l-2.4468-.3288a12.78,12.78,0,0,1,3.0906.8267l-2.1986-.9278a10.1255,10.1255,0,0,1,2.1693,1.2428l-1.8628-1.4392a8.5969,8.5969,0,0,1,1.4764,1.4552l-1.4392-1.8627a8.2249,8.2249,0,0,1,1.0334,1.7536l-.9278-2.1986a9.1676,9.1676,0,0,1,.61,2.2542l-.3287-2.4468a12.3088,12.3088,0,0,1-.0215,3.1335l.3287-2.4468a20.7961,20.7961,0,0,1-1.4926,5.1866l.9279-2.1987a36.3515,36.3515,0,0,1-1.76,3.5433,9.5956,9.5956,0,0,0-.9279,7.0922,9.3869,9.3869,0,0,0,4.23,5.5005,9.29,9.29,0,0,0,7.0922.9279,9.4873,9.4873,0,0,0,5.5-4.23c2.577-4.584,4.6614-9.8046,4.6248-15.1514a16.7688,16.7688,0,0,0-1.0329-6.0583,17.8251,17.8251,0,0,0-4.1689-6.6639,18.8659,18.8659,0,0,0-9.8157-5.0117,23.4556,23.4556,0,0,0-11.3161.4873,17.7234,17.7234,0,0,0-5.0716,2.389,16.3491,16.3491,0,0,0-2.8945,2.4354,12.9944,12.9944,0,0,0-2.1412,3.0262,6.851,6.851,0,0,0-1.0923,3.422,6.9736,6.9736,0,0,0,.1644,3.67,9.3868,9.3868,0,0,0,4.23,5.5006,9.29,9.29,0,0,0,7.0922.9278c2.1148-.6844,4.5848-2.0876,5.5006-4.23Z"/><path fill="none" stroke="#044e83" stroke-linecap="round" stroke-linejoin="round" stroke-width="17.531" d="M965.9724,2273.6641a330.0487,330.0487,0,0,1,58.6948,13.6847"/><path fill="none" stroke="#044e83" stroke-linecap="round" stroke-linejoin="round" stroke-width="17.531" d="M1381.9088,1999.6941a63.3,63.3,0,0,0,9.99,31.6292"/><path fill="#f08a38" d="M2662.93,2237.8666q.065.4385.1245.8775l-.3288-2.4468a74.8383,74.8383,0,0,1,.0076,19.456l.3288-2.4467a74.17,74.17,0,0,1-5.0588,18.69l.9278-2.1986q-.6877,1.614-1.4459,3.195a9.868,9.868,0,0,0-.9278,7.0922,9.3869,9.3869,0,0,0,4.23,5.5,9.29,9.29,0,0,0,7.0922.9279c2.1744-.7037,4.4748-2.0915,5.5005-4.23a80.39,80.39,0,0,0,7.2784-22.987,78.2069,78.2069,0,0,0,.0221-26.324c-.3076-2.12-2.4731-4.4726-4.23-5.5006a9.2036,9.2036,0,0,0-12.5928,3.3019l-.9278,2.1987a9.2681,9.2681,0,0,0,0,4.8935Z"/><path fill="#f08a38" d="M1960.8626,2298.6581l39.32,35.3946a9.6941,9.6941,0,0,0,6.5082,2.6958,9.3665,9.3665,0,0,0,6.5082-2.6958c3.227-3.5153,3.8215-9.5762,0-13.0163l-39.32-35.3947a9.6946,9.6946,0,0,0-6.5082-2.6958,9.3665,9.3665,0,0,0-6.5082,2.6958c-3.227,3.5153-3.8215,9.5763,0,13.0164Z"/><path fill="#3a2921" d="M3404.069,1651.8533q-3.6442-17.0636-5.9708-34.3688l.3288,2.4467a455.0248,455.0248,0,0,1-3.9773-66.33q.1279-9.4687.6519-18.9259l-13.8494,7.9474q25.5753,19.1337,51.8323,37.3322,26.1963,18.1491,53.0457,35.3305,15.1123,9.6691,30.4228,19.0233c4.1132,2.5137,10.3021,1.0336,12.5927-3.3019a9.3873,9.3873,0,0,0-3.3019-12.5927q-27.16-16.5981-53.7-34.1817-26.5911-17.6212-52.5248-36.209-14.6469-10.4977-29.0755-21.2954c-2.5526-1.91-6.6961-1.5185-9.2909,0a9.44,9.44,0,0,0-4.5585,7.9473,465.7159,465.7159,0,0,0,4.824,95.8629q2.0112,13.1722,4.8009,26.2083c1.007,4.7151,6.7835,7.8971,11.322,6.4284a9.4212,9.4212,0,0,0,6.4284-11.322Z"/><path fill="#3a2921" d="M3225.5943,1394.5629l-35.1766-13.23c-5.3057-1.9955-12.165,3.23-11.6507,8.8752,1.4453,15.8638,4.588,31.51,8.25,46.9933,4.19,17.7167,8.9467,35.2943,13.3358,52.9616,2.893,11.6456,5.6512,23.3245,8.1879,35.0531,1.0191,4.7121,6.7749,7.9,11.3219,6.4284a9.4187,9.4187,0,0,0,6.4284-11.322c-3.9774-18.39-8.5339-36.6432-13.2072-54.8669-3.8851-15.15-7.87-30.2887-11.1214-45.5911-1.6212-7.629-3.043-15.3029-4.0894-23.0331l.3288,2.4468q-.6062-4.5243-1.0264-9.07l-11.6507,8.8751,35.1765,13.23c2.1161.7959,5.21.1734,7.0922-.9278a9.2034,9.2034,0,0,0,3.3019-12.5928,10.454,10.454,0,0,0-5.5-4.23Z"/><path fill="#e98076" d="M557.2546,2118.9631l21.3725-3.6343c2.1432-.3645,4.4459-2.4274,5.5006-4.23a9.2034,9.2034,0,0,0-3.3019-12.5927,10.4828,10.4828,0,0,0-7.0922-.9279l-21.3726,3.6343c-2.1432.3644-4.4458,2.4274-5.5,4.23a9.2032,9.2032,0,0,0,3.3019,12.5927,10.4828,10.4828,0,0,0,7.0922.9279Z"/><path fill="#e98076" d="M509.0841,2374.458l19.4243,9.54a9.8238,9.8238,0,0,0,7.0922.9278,9.3871,9.3871,0,0,0,5.5006-4.23,9.2906,9.2906,0,0,0,.9278-7.0921,9.1308,9.1308,0,0,0-4.23-5.5006l-19.4242-9.54a9.8239,9.8239,0,0,0-7.0922-.9279,9.3872,9.3872,0,0,0-5.5006,4.23,9.29,9.29,0,0,0-.9278,7.0922,9.13,9.13,0,0,0,4.23,5.5006Z"/><path fill="#ffb99d" d="M954.0049,1496.3562c-117.0123-50.4573-157.6831,26.6333-157.6831,26.6333s-34.2626,35.7419-18.194,77.3593-64.3919,208.8541,36.8914,228.037,181.3069-46.5429,175.984-146.6655S954.0049,1496.3562,954.0049,1496.3562Z"/><g clip-path="url(#t)"><path fill="#fa7a71" d="M940.74,1630.0476c-21.6794,12.2171-28.35-57.1788-46.6942-42.3337s-32.7972,35.0034-61.7031-4.0914-52.809.3836-67.262-9.5819,27.0725-58.8715,27.0725-58.8715l148.0309,4.4374,36.6884,45.0652"/></g><path fill="#68222a" d="M931.0749,1710.0113c7.4223,25.18,135.4766,46.97,123.2407-24.3628,26.7287.6483,52.9812-153.62-16.2406-167.9075,31.5659-15.2-24.8472-114.2508-64.3523-73.6362-40.046-37.5181-94.0225-47.9477-96.0569-6.2076-54.7476-20.652-63.836-7.0943-55.41,20.1248-50.9809-11.2669-62.6424,25.6253-53.3589,45.0662-61.1643,15.9341-36.89,95.5523,27.0943,55.0549l26.9709-2.8987s21.992,43.6651,33.6015,41,18.9216-9.2888,45.3933-12.048,31.2737,82.301,31.4047,85.1638S931.0749,1710.0113,931.0749,1710.0113Z"/><g clip-path="url(#u)"><path fill="#501f2b" d="M981.5162,1620.4668c60.1163,27.7857,2.8366,117.153,2.3124,118.7585s-55.0406,3.099-55.0406,3.099L916.5586,1698.02"/><path fill="#501f2b" d="M804.5671,1420.2578s-59.938-14.1074,17.6885,37.7642-1.587,21.6342-51.6166-11.352,33.9281-81.5493,33.9281-81.5493"/><path fill="#501f2b" d="M877.6658,1437.8972c110.6018,74.7452-2.4107-21.4646-2.4107-21.4646l-7.8923-7.4208"/><path fill="#501f2b" d="M1064.98,1494.3168l-26.9046,23.4242s-29.835,17.8132-68.9854,9.6858c-1.3033,13.6663,79.2135,13.6382,99.2253-4.6963s6.6706-58.3369,6.6706-58.3369"/></g><path fill="#ffb99d" d="M926.9659,1626.5026c65.3654-59.3406,128.0457,86.9569-4.3462,91.7189"/><path fill="#fff" d="M796.5552,1625.2322c-9.2033,49.9669,37.0017,59.1816,48.702,13.4055C854.46,1588.6722,808.2553,1579.4575,796.5552,1625.2322Z"/><g clip-path="url(#v)"><path fill="#3d2820" d="M794.724,1626.2538c-3.3464,24.261,19.87,31.0672,25.4448,4.8333C823.5149,1606.8281,800.2989,1600.022,794.724,1626.2538Z"/></g><path fill="#ffb99d" d="M787.3468,1620.4668c-24.1225,22.3966-41.6506,24.6562-43.4558,35.0947s12.1127,29.056,34.9123,31.8434"/><g clip-path="url(#w)"><path fill="url(#未命名的渐变_2)" d="M765.0975,1632.0508c11.8165,42.7006-21.4993,21.3274-17.9857,47.5269s-16.02-28.6355-16.02-28.6355l18.4041-14.134"/></g><path fill="#fa7a71" d="M843.3137,1711.51c7.9475,14.3679,28.1126,18.5306,45.6149,9.106,18.11-9.7521,26.643-30.3292,18.4254-45.7529-8.2792-15.5395-29.9634-19.1552-47.8-8.32C842.324,1677.0094,835.31,1697.0411,843.3137,1711.51Z" opacity=".5"/><path fill="#3d2820" d="M818.7473,1559.482c37.4763,6.5331,42.6137,25.319,18.946,22.915S794.2625,1555.2137,818.7473,1559.482Z"/><path fill="none" stroke="#ba424d" stroke-linecap="round" stroke-linejoin="round" stroke-width="12.272" d="M821.731,1716.8078c-15.1283,21.79-34.3278,13.0255-34.3278,13.0255"/><path fill="none" stroke="#ba424d" stroke-linecap="round" stroke-linejoin="round" stroke-width="12.272" d="M950.9465,1647.42c8.2215-3.0385,18.1307,15.6758,3.0292,29.1565"/></svg>