<svg xmlns="http://www.w3.org/2000/svg" viewBox="0 0 4000 3000"><defs><clipPath id="a"><rect width="4000" height="3000" fill="none"/></clipPath><clipPath id="b"><polygon fill="#1F1F22" stroke="#fff" stroke-linecap="round" stroke-linejoin="round" stroke-width="5" points="2339.601 1044.648 2596.24 1240.577 2255.465 1443.224 1998.827 1247.295 2339.601 1044.648"/></clipPath><clipPath id="c"><rect width="1158.847" height="720.859" x="2191.689" y="1526.672" fill="#00D3F2" stroke="#fff" stroke-linecap="round" stroke-linejoin="round" stroke-width="5" rx="47.324"/></clipPath><clipPath id="d"><rect width="217.035" height="146.695" x="2997.487" y="1938.221" fill="#1F1F22" stroke="#fff" stroke-linecap="round" stroke-linejoin="round" stroke-width="5" rx="40.212"/></clipPath><clipPath id="e"><path fill="#00D3F2" stroke="#fff" stroke-linecap="round" stroke-linejoin="round" stroke-width="5" d="M2049.09,1959.8191c2.176,49.8678,119.4424,221.27,124.6952,245.3691,42.2626,92.7422,53.0688,152.312,85.6737,149.0078,275.6867,81.93,249.4064,98.3321,292.7377,13.7158C2526.0068,2339.681,2155.1181,1942.8075,2049.09,1959.8191Z"/></clipPath><clipPath id="f"><path fill="#00D3F2" stroke="#fff" stroke-linecap="round" stroke-linejoin="round" stroke-width="5" d="M2104.3916,1973.2477c-25.2611-30.0347-363.9861-87.2009-370.3926,1.3639,106.8338,412.48,17.6428,602.831,60.4974,590.7942,700.52,15.7085,442.3453-34.7683,364.4892-279.4586,26.35-67.796,51.7536-116.4934,3.0142-187.3241"/></clipPath><clipPath id="g"><path fill="#1F1F22" stroke="#fff" stroke-linecap="round" stroke-linejoin="round" stroke-width="5" d="M2103.15,2312.252c-124.7569-8.9743-118.1712,67.8517-150.69,112.5262.5057.1819-243.5833-46.1694-244.8084-46.3351l33.8952-61.7991c-40.8345,6.0079-229.5428,2.1392-233.2343-1.0357-17.576,38.1087-49.4242,179.16,28.4416,180.3388,672.0415,36.8785,371.35,21.6639,581.2709-88.0979,83.6495,63.72,16.2683-43.2812-33.4651-60.5665,47.5186-5.0377,139.8232,23.048,75.7052-18.9793C2152.0513,2322.9193,2103.15,2312.252,2103.15,2312.252Z"/></clipPath><clipPath id="h"><path fill="#1F1F22" stroke="#fff" stroke-linecap="round" stroke-linejoin="round" stroke-width="5" d="M2689.6257,2574.5273H2152.9224c87.9407-523.05-32.9436-400.5792,296.7688-415.654C2867.7714,2164.809,2730.9584,2078.1607,2689.6257,2574.5273Z"/></clipPath><clipPath id="i"><path fill="#1F1F22" stroke="#fff" stroke-linecap="round" stroke-linejoin="round" stroke-width="5" d="M1781.4025,1750.7876c10.3656,72.7113-161.8939,73.64-189.7337,9.3761C1556.3271,1672.8793,1770.1663,1676.2015,1781.4025,1750.7876Z"/></clipPath></defs><g clip-path="url(#a)"><g style="isolation:isolate"><polygon fill="#1F1F22" points="2339.601 1044.648 2596.24 1240.577 2255.465 1443.224 1998.827 1247.295 2339.601 1044.648"/><g clip-path="url(#b)"><line x1="1860.286" x2="2734.78" y1="1613.71" y2="1613.71" fill="none" stroke="#fff" stroke-linecap="round" stroke-linejoin="round" stroke-width="5"/><line x1="1860.286" x2="2734.78" y1="1580.094" y2="1580.094" fill="none" stroke="#fff" stroke-linecap="round" stroke-linejoin="round" stroke-width="5"/><line x1="1860.286" x2="2734.78" y1="1546.478" y2="1546.478" fill="none" stroke="#fff" stroke-linecap="round" stroke-linejoin="round" stroke-width="5"/><line x1="1860.286" x2="2734.78" y1="1512.863" y2="1512.863" fill="none" stroke="#fff" stroke-linecap="round" stroke-linejoin="round" stroke-width="5"/><line x1="1860.286" x2="2734.78" y1="1479.247" y2="1479.247" fill="none" stroke="#fff" stroke-linecap="round" stroke-linejoin="round" stroke-width="5"/><line x1="1860.286" x2="2734.78" y1="1445.631" y2="1445.631" fill="none" stroke="#fff" stroke-linecap="round" stroke-linejoin="round" stroke-width="5"/><line x1="1860.286" x2="2734.78" y1="1412.015" y2="1412.015" fill="none" stroke="#fff" stroke-linecap="round" stroke-linejoin="round" stroke-width="5"/><line x1="1860.286" x2="2734.78" y1="1378.399" y2="1378.399" fill="none" stroke="#fff" stroke-linecap="round" stroke-linejoin="round" stroke-width="5"/><line x1="1860.286" x2="2734.78" y1="1344.783" y2="1344.783" fill="none" stroke="#fff" stroke-linecap="round" stroke-linejoin="round" stroke-width="5"/><line x1="1860.286" x2="2734.78" y1="1311.168" y2="1311.168" fill="none" stroke="#fff" stroke-linecap="round" stroke-linejoin="round" stroke-width="5"/><line x1="1860.286" x2="2734.78" y1="1277.552" y2="1277.552" fill="none" stroke="#fff" stroke-linecap="round" stroke-linejoin="round" stroke-width="5"/><line x1="1860.286" x2="2734.78" y1="1243.936" y2="1243.936" fill="none" stroke="#fff" stroke-linecap="round" stroke-linejoin="round" stroke-width="5"/><line x1="1860.286" x2="2734.78" y1="1210.32" y2="1210.32" fill="none" stroke="#fff" stroke-linecap="round" stroke-linejoin="round" stroke-width="5"/><line x1="1860.286" x2="2734.78" y1="1176.704" y2="1176.704" fill="none" stroke="#fff" stroke-linecap="round" stroke-linejoin="round" stroke-width="5"/><line x1="1860.286" x2="2734.78" y1="1143.088" y2="1143.088" fill="none" stroke="#fff" stroke-linecap="round" stroke-linejoin="round" stroke-width="5"/><line x1="1860.286" x2="2734.78" y1="1109.473" y2="1109.473" fill="none" stroke="#fff" stroke-linecap="round" stroke-linejoin="round" stroke-width="5"/><line x1="1860.286" x2="2734.78" y1="1075.857" y2="1075.857" fill="none" stroke="#fff" stroke-linecap="round" stroke-linejoin="round" stroke-width="5"/><line x1="1860.286" x2="2734.78" y1="1042.241" y2="1042.241" fill="none" stroke="#fff" stroke-linecap="round" stroke-linejoin="round" stroke-width="5"/><line x1="1860.286" x2="2734.78" y1="1008.625" y2="1008.625" fill="none" stroke="#fff" stroke-linecap="round" stroke-linejoin="round" stroke-width="5"/><line x1="1860.286" x2="2734.78" y1="975.009" y2="975.009" fill="none" stroke="#fff" stroke-linecap="round" stroke-linejoin="round" stroke-width="5"/><line x1="1860.286" x2="2734.78" y1="941.393" y2="941.393" fill="none" stroke="#fff" stroke-linecap="round" stroke-linejoin="round" stroke-width="5"/><line x1="1860.286" x2="2734.78" y1="907.777" y2="907.777" fill="none" stroke="#fff" stroke-linecap="round" stroke-linejoin="round" stroke-width="5"/><line x1="1860.286" x2="2734.78" y1="874.162" y2="874.162" fill="none" stroke="#fff" stroke-linecap="round" stroke-linejoin="round" stroke-width="5"/></g><polygon fill="none" stroke="#fff" stroke-linecap="round" stroke-linejoin="round" stroke-width="5" points="2339.601 1044.648 2596.24 1240.577 2255.465 1443.224 1998.827 1247.295 2339.601 1044.648"/><polygon fill="#00D3F2" stroke="#fff" stroke-linecap="round" stroke-linejoin="round" stroke-width="5" points="2284.886 716.282 2541.525 912.211 2596.24 1240.577 2339.601 1044.648 2284.886 716.282"/><polygon fill="#1F1F22" stroke="#fff" stroke-linecap="round" stroke-linejoin="round" stroke-width="5" points="2339.601 1044.648 1998.827 1247.295 1944.112 918.929 2284.886 716.282 2339.601 1044.648"/></g><path fill="none" stroke="#fff" stroke-linecap="round" stroke-linejoin="round" stroke-width="5" d="M2125.6029,965.1285a53.1433,53.1433,0,0,1-16.6869,29.7526"/><path fill="#1F1F22" stroke="#fff" stroke-linecap="round" stroke-linejoin="round" stroke-width="5" d="M1112.0473,1697.971l-144.33,129.8383s-370.7648,96.1-309.7177-378.0464,486.209-1125.794,486.209-1125.794L2318.3028,523.7624s-922.0056,311.4888-879.3691,861.756Z"/><path fill="#1F1F22" stroke="#fff" stroke-linecap="round" stroke-linejoin="round" stroke-width="5" d="M1516.8887,1419.9472l-463.1711,82.4219s112.5562,131.1086-86.0008,325.44L1438.98,1700.6961Z"/><path fill="#dbe0e8" stroke="#fff" stroke-linecap="round" stroke-linejoin="round" stroke-width="5" d="M1412.4714,2674.6384c-165.1075-194.6257,350.2929-220.3321,39.2847-420.557-358.1487-230.5736,901.439-1130.0544-280.6407-1034.393,0,0,419.89,34.116-5.2972,607.9526-424.1248,572.4028,268.7989,342.3492,131.8745,630.77C1217.2856,2627.7816,1412.4714,2674.6384,1412.4714,2674.6384Z"/><polygon fill="#1F1F22" stroke="#fff" stroke-linecap="round" stroke-linejoin="round" stroke-width="5" points="1436.85 1575.528 1347.41 1575.528 1414.145 1418.704 1503.585 1418.704 1436.85 1575.528"/><path fill="#1F1F22" stroke="#fff" stroke-linecap="round" stroke-linejoin="round" stroke-width="5" d="M1646.2661,1447.9352H1520.6989c-4.175,0-5.3-5.3111-2.5115-11.8626l2.3431-5.5062c2.788-6.5516,8.4326-11.8627,12.6077-11.8627h125.5672c4.175,0,5.2995,5.3111,2.5115,11.8627l-2.3431,5.5062C1656.0858,1442.6241,1650.4412,1447.9352,1646.2661,1447.9352Z"/><path fill="#1F1F22" stroke="#fff" stroke-linecap="round" stroke-linejoin="round" stroke-width="5" d="M1620.6637,1508.0994H1495.0964c-4.175,0-5.2994-5.3111-2.5115-11.8627l2.3432-5.5061c2.7879-6.5516,8.4326-11.8627,12.6076-11.8627h125.5672c4.1751,0,5.2995,5.3111,2.5115,11.8627l-2.3431,5.5061C1630.4834,1502.7883,1624.8387,1508.0994,1620.6637,1508.0994Z"/><path fill="#1F1F22" stroke="#fff" stroke-linecap="round" stroke-linejoin="round" stroke-width="5" d="M1595.0612,1568.2636H1469.494c-4.1751,0-5.2995-5.3111-2.5115-11.8627l2.3431-5.5062c2.788-6.5515,8.4326-11.8626,12.6077-11.8626h125.5672c4.175,0,5.2995,5.3111,2.5115,11.8626l-2.3431,5.5062C1604.8809,1562.9525,1599.2363,1568.2636,1595.0612,1568.2636Z"/><path fill="#1F1F22" stroke="#fff" stroke-linecap="round" stroke-linejoin="round" stroke-width="5" d="M1532.9927,1653.835h-214.39c-2.4943,0-3.1661-3.1729-1.5005-7.087l1.4-3.29c1.6656-3.9141,5.0378-7.087,7.5321-7.087h214.39c2.4942,0,3.166,3.1729,1.5,7.087l-1.4,3.29C1538.8593,1650.6621,1535.487,1653.835,1532.9927,1653.835Z"/><path fill="#1F1F22" stroke="#fff" stroke-linecap="round" stroke-linejoin="round" stroke-width="5" d="M1509.7074,1708.5542h-214.39c-2.4943,0-3.166-3.173-1.5-7.087l1.4-3.29c1.6656-3.9141,5.0378-7.0871,7.5321-7.0871h214.39c2.4942,0,3.166,3.173,1.5,7.0871l-1.4,3.29C1515.5739,1705.3812,1512.2016,1708.5542,1509.7074,1708.5542Z"/><path fill="#1F1F22" stroke="#fff" stroke-linecap="round" stroke-linejoin="round" stroke-width="5" d="M1486.422,1763.2734h-214.39c-2.4943,0-3.166-3.173-1.5-7.087l1.4-3.29c1.6656-3.9141,5.0378-7.0871,7.5321-7.0871h214.39c2.4943,0,3.166,3.173,1.5,7.0871l-1.4,3.29C1492.2885,1760.1,1488.9163,1763.2734,1486.422,1763.2734Z"/><path fill="#1F1F22" stroke="#fff" stroke-linecap="round" stroke-linejoin="round" stroke-width="5" d="M1463.1366,1817.9926h-214.39c-2.4942,0-3.166-3.173-1.5-7.0871l1.4-3.29c1.6656-3.914,5.0379-7.087,7.5321-7.087h214.39c2.4943,0,3.166,3.173,1.5,7.087l-1.4,3.29C1469.0031,1814.82,1465.6309,1817.9926,1463.1366,1817.9926Z"/><path fill="#1F1F22" stroke="#fff" stroke-linecap="round" stroke-linejoin="round" stroke-width="5" d="M1317.98,1891.34H1217.5344c-2.4943,0-3.166-3.1729-1.5-7.087l1.4-3.29c1.6656-3.914,5.0379-7.087,7.5321-7.087h100.4459c2.4943,0,3.1661,3.173,1.5,7.087l-1.4,3.29C1323.8468,1888.1666,1320.4746,1891.34,1317.98,1891.34Z"/><path fill="none" stroke="#fff" stroke-linecap="round" stroke-linejoin="round" stroke-width="5" d="M1337.7615,670.2594a586.2976,586.2976,0,0,1-94.1154,46.7155"/><path fill="none" stroke="#fff" stroke-linecap="round" stroke-linejoin="round" stroke-width="5" d="M1347.9032,2116.4022a273.8873,273.8873,0,0,1-72.82,37.091"/><path fill="none" stroke="#fff" stroke-linecap="round" stroke-linejoin="round" stroke-width="5" d="M2318.3028,523.7624s-608.6676,205.6313-814.0489,577.8936"/><path fill="none" stroke="#fff" stroke-linecap="round" stroke-linejoin="round" stroke-width="5" d="M1165.8182,1827.641c-424.1248,572.4028,268.7989,342.3492,131.8745,630.77"/><rect width="1158.847" height="720.859" x="2191.689" y="1526.672" fill="#00D3F2" rx="47.324"/><g clip-path="url(#c)"><rect width="1223.133" height="132.611" x="2152.779" y="1662.683" fill="#1F1F22" stroke="#fff" stroke-linecap="round" stroke-linejoin="round" stroke-width="5"/></g><rect width="1158.847" height="720.859" x="2191.689" y="1526.672" fill="none" stroke="#fff" stroke-linecap="round" stroke-linejoin="round" stroke-width="5" rx="47.324"/><rect width="217.035" height="146.695" x="2997.487" y="1938.221" fill="#1F1F22" rx="40.212"/><g clip-path="url(#d)"><polygon fill="#1F1F22" stroke="#fff" stroke-linecap="round" stroke-linejoin="round" stroke-width="5" points="3237.047 2007.488 3067.445 2007.488 3067.445 1924.161 3057.588 1924.161 3057.588 2007.488 2974.961 2007.488 2974.961 2015.65 3146.737 2015.65 3146.737 2098.976 3156.594 2098.976 3156.594 2015.65 3237.047 2015.65 3237.047 2007.488"/></g><rect width="217.035" height="146.695" x="2997.487" y="1938.221" fill="none" stroke="#fff" stroke-linecap="round" stroke-linejoin="round" stroke-width="5" rx="40.212"/><path fill="none" stroke="#fff" stroke-linecap="round" stroke-linejoin="round" stroke-width="5" d="M2510.5068,1932.9552a120.9076,120.9076,0,0,1-54.68,62.9757"/><path fill="none" stroke="#fff" stroke-linecap="round" stroke-linejoin="round" stroke-width="5" d="M3111.9951,1587.55l-11.4749,14.3785"/><path fill="none" stroke="#fff" stroke-linecap="round" stroke-linejoin="round" stroke-width="5" d="M3303.3289,2247.5308H2238.8963a47.3245,47.3245,0,0,1-47.207-47.4412"/><path fill="none" stroke="#fff" stroke-linecap="round" stroke-linejoin="round" stroke-width="5" d="M2997.4867,2044.6042v-66.0709a40.2128,40.2128,0,0,1,40.1129-40.3119"/><path fill="#00D3F2" d="M2049.09,1959.8191c2.176,49.8678,119.4424,221.27,124.6952,245.3691,42.2626,92.7422,53.0688,152.312,85.6737,149.0078,275.6867,81.93,249.4064,98.3321,292.7377,13.7158C2526.0068,2339.681,2155.1181,1942.8075,2049.09,1959.8191Z"/><g clip-path="url(#e)"><path fill="#00D3F2" d="M2143.0675,2115.0753c46.1586-56.1224,134.344,161.7882,232.0156,298.8933s-90.1015,97.5286-101.57,92.2553-132.8268-112.379-132.8268-112.379"/></g><path fill="none" stroke="#fff" stroke-linecap="round" stroke-linejoin="round" stroke-width="5" d="M2049.09,1959.8191c2.176,49.8678,119.4424,221.27,124.6952,245.3691,42.2626,92.7422,53.0688,152.312,85.6737,149.0078,275.6867,81.93,249.4064,98.3321,292.7377,13.7158C2526.0068,2339.681,2155.1181,1942.8075,2049.09,1959.8191Z"/><path fill="#00D3F2" d="M2104.3916,1973.2477c-25.2611-30.0347-363.9861-87.2009-370.3926,1.3639,106.8338,412.48,17.6428,602.831,60.4974,590.7942,700.52,15.7085,442.3453-34.7683,364.4892-279.4586,26.35-67.796,51.7536-116.4934,3.0142-187.3241"/><g clip-path="url(#f)"><path fill="#1F1F22" stroke="#fff" stroke-linecap="round" stroke-linejoin="round" stroke-width="5" d="M1751.9643,1926.9609c481.8694,424.0639,232.2743-279.9669,4.7415-46.3648"/><path fill="#1F1F22" stroke="#fff" stroke-linecap="round" stroke-linejoin="round" stroke-width="5" d="M1732.7685,1892.2149c481.8694,424.0639,232.2744-279.9669,4.7416-46.3648"/><path fill="#00D3F2" d="M1808.5076,2189.0682c98.1755-132.6455-143.867,409.6053-13.5851,424.52,202.0409,23.1291,175.3832,106.1357,175.3832,106.1357l-21.716-31.4476c-219.3617,32.5584,204.9618-83.6371-316.0428-127.0684-5.1908,18.7868-8.2726-356.7525-11.33-393.8644-10.9008-6.0633,40.9172-1.4107,54.6243-2.6933"/></g><path fill="none" stroke="#fff" stroke-linecap="round" stroke-linejoin="round" stroke-width="5" d="M2104.3916,1973.2477c-25.2611-30.0347-363.9861-87.2009-370.3926,1.3639,106.8338,412.48,17.6428,602.831,60.4974,590.7942,700.52,15.7085,442.3453-34.7683,364.4892-279.4586,26.35-67.796,51.7536-116.4934,3.0142-187.3241"/><path fill="#1F1F22" d="M2103.15,2312.252c-124.7569-8.9743-118.1712,67.8517-150.69,112.5262.5057.1819-243.5833-46.1694-244.8084-46.3351l33.8952-61.7991c-40.8345,6.0079-229.5428,2.1392-233.2343-1.0357-17.576,38.1087-49.4242,179.16,28.4416,180.3388,672.0415,36.8785,371.35,21.6639,581.2709-88.0979,83.6495,63.72,16.2683-43.2812-33.4651-60.5665,47.5186-5.0377,139.8232,23.048,75.7052-18.9793C2152.0513,2322.9193,2103.15,2312.252,2103.15,2312.252Z"/><g clip-path="url(#g)"><path fill="#fff" d="M1409.8767,2400.96c-.2392-38.5463,245.6683-9.5433,208.9472-52.0225-35.0776-40.578-214.24-56.8342-214.24-56.8342"/></g><path fill="none" stroke="#fff" stroke-linecap="round" stroke-linejoin="round" stroke-width="5" d="M2103.15,2312.252c-124.7569-8.9743-118.1712,67.8517-150.69,112.5262.5057.1819-243.5833-46.1694-244.8084-46.3351l33.8952-61.7991c-40.8345,6.0079-229.5428,2.1392-233.2343-1.0357-17.576,38.1087-49.4242,179.16,28.4416,180.3388,672.0415,36.8785,371.35,21.6639,581.2709-88.0979,83.6495,63.72,16.2683-43.2812-33.4651-60.5665,47.5186-5.0377,139.8232,23.048,75.7052-18.9793C2152.0513,2322.9193,2103.15,2312.252,2103.15,2312.252Z"/><path fill="#1F1F22" stroke="#fff" stroke-linecap="round" stroke-linejoin="round" stroke-width="5" d="M2199.24,2574.5031H1765.639c-37.62-57.4067,421.0829-17.2692,430.7319-28.4679Z"/><path fill="#1F1F22" stroke="#fff" stroke-linecap="round" stroke-linejoin="round" stroke-width="5" d="M2674.0912,2574.5273H2137.3879c87.9408-523.05-32.9436-400.5792,296.7689-415.654C2852.2369,2164.809,2715.4239,2078.1607,2674.0912,2574.5273Z"/><path fill="#1F1F22" d="M2689.6257,2574.5273H2152.9224c87.9407-523.05-32.9436-400.5792,296.7688-415.654C2867.7714,2164.809,2730.9584,2078.1607,2689.6257,2574.5273Z"/><g clip-path="url(#h)"><path fill="gray" d="M2448.581,2592.3325c23.5311-81.5573,317.3466,36.0851,385.1566-199.1684s-23.4329,193.0016-23.4329,193.0016l-350.1858,62.7364-319.8718-46.0067"/><path fill="gray" d="M2639.4177,2300.6561c2.1532,30.18,28.2921,25.0393,28.2921,25.0393,69.9472,135.1327,153.9087-39.2467,13.8775-38.6336"/></g><path fill="none" stroke="#fff" stroke-linecap="round" stroke-linejoin="round" stroke-width="5" d="M2689.6257,2574.5273H2152.9224c87.9407-523.05-32.9436-400.5792,296.7688-415.654C2867.7714,2164.809,2730.9584,2078.1607,2689.6257,2574.5273Z"/><path fill="gray" d="M2506.3819,2336.6172c-3.5157,29.509-63.8367,67.2288-88.276,21.89C2391.8373,2300.97,2510.4644,2259.9344,2506.3819,2336.6172Z"/><path fill="#1F1F22" stroke="#fff" stroke-linecap="round" stroke-linejoin="round" stroke-width="5" d="M2740.3912,2233.6022c-25.5263-14.8134-142.7984,48.9367-49.1562,43.952-27.8475,2.2823-96.978,24.4617-17.1316,32.68-19.8393,29.7208,104.29,62.08,64.52,4.2363,14.9939-2.9368-2.7473-25.666-3.5734-42.3643C2756.6273,2272.0675,2754.7313,2251.2733,2740.3912,2233.6022Z"/><path fill="#00D3F2" d="M1744.1322,1953.3522c-44.6125,13.7389-178.3861,95.181-259.3756,391.416,104.5112,42.1862,256.9772,17.5776,256.9772,17.5776s45.4979-100.6873,66.7738-173.2776"/><path fill="none" stroke="#fff" stroke-linecap="round" stroke-linejoin="round" stroke-width="5" d="M1744.1322,1953.3522c-44.6125,13.7389-178.3861,95.181-259.3756,391.416,104.5112,42.1862,256.9772,17.5776,256.9772,17.5776s45.4979-100.6873,66.7738-173.2776"/><path fill="#1F1F22" stroke="#fff" stroke-linecap="round" stroke-linejoin="round" stroke-width="5" d="M1764.181,1772.5062c42.9123,40.5273-55.1854,152.5207-103.8852,112.5919C1617.3894,1844.5748,1715.487,1732.5814,1764.181,1772.5062Z"/><path fill="#1F1F22" d="M1781.4025,1750.7876c10.3656,72.7113-161.8939,73.64-189.7337,9.3761C1556.3271,1672.8793,1770.1663,1676.2015,1781.4025,1750.7876Z"/><g clip-path="url(#i)"><path fill="#1F1F22" stroke="#fff" stroke-linecap="round" stroke-linejoin="round" stroke-width="5" d="M1816.3527,1727.3855c13.2276,95.207-85.4229,97.6074-113.3137,13.6124C1670.198,1626.9694,1797.906,1626.41,1816.3527,1727.3855Z"/></g><path fill="none" stroke="#fff" stroke-linecap="round" stroke-linejoin="round" stroke-width="5" d="M1781.4025,1750.7876c10.3656,72.7113-161.8939,73.64-189.7337,9.3761C1556.3271,1672.8793,1770.1663,1676.2015,1781.4025,1750.7876Z"/><path fill="#1F1F22" stroke="#fff" stroke-linecap="round" stroke-linejoin="round" stroke-width="5" d="M1833.3293,1823.2648c68.6823,69.2946-15.4242,162.4281-90.3588,97.9336C1674.2923,1851.9066,1758.3987,1758.7731,1833.3293,1823.2648Z"/><path fill="#1F1F22" d="M1961.6794,1944.6891l-25.99-146.7857c-174.29,29.526-105.9854,25.7011-97.7227,144.19"/><path fill="none" stroke="#fff" stroke-linecap="round" stroke-linejoin="round" stroke-width="5" d="M1961.6794,1944.6891l-25.99-146.7857c-174.29,29.526-105.9854,25.7011-97.7227,144.19"/><path fill="#1F1F22" stroke="#fff" stroke-linecap="round" stroke-linejoin="round" stroke-width="5" d="M1942.578,1573.564c-103.5482-35.0123-121.2714,39.6851-170.4046,64.8295-58.5023-2.0119-94.508,75.3747,21.6247,170.9574C2060.64,1868.0643,2064.4593,1626.4721,1942.578,1573.564Z"/><path fill="#1F1F22" d="M1901.0947,1875.3081c172.6867,74.762,155.5914-231.3253-39.2215-207.378,43.6541,116.3834-20.8788,108.3-25.6153,170.3359"/><path fill="none" stroke="#fff" stroke-linecap="round" stroke-linejoin="round" stroke-width="5" d="M1901.0947,1875.3081c172.6867,74.762,155.5914-231.3253-39.2215-207.378,43.6541,116.3834-20.8788,108.3-25.6153,170.3359"/><path fill="#1F1F22" stroke="#fff" stroke-linecap="round" stroke-linejoin="round" stroke-width="5" d="M1836.6656,1842.6149c-151.6348-22.0778,4.8934-121.2073,22.0972-29.9905"/><path fill="#00D3F2" d="M1997.241,2218.8383c87.72,9.9134,103.6974-55.3969,103.6974-55.3969"/><path fill="#fff" d="M1804.3573,1792.79c2.3917,14.9012,21.4541,26.8441,17.088,28.1446C1817.2268,1822.1915,1777.0707,1811.9517,1804.3573,1792.79Z"/><ellipse cx="1984.476" cy="1733.408" fill="#fff" rx="7.149" ry="7.184"/><ellipse cx="1921.695" cy="1746.627" fill="#fff" rx="7.149" ry="7.184"/><path fill="#1F1F22" stroke="#fff" stroke-linecap="round" stroke-linejoin="round" stroke-width="5" d="M1952.6282,1733.363c6.7238,17.719,8.65,22.9608,8.65,22.9608,30.437-5.5325,6.2771,25.7761,6.2771,25.7761"/><path fill="#1F1F22" stroke="#fff" stroke-linecap="round" stroke-linejoin="round" stroke-width="5" d="M1949.6242,1789.3316a13.668,13.668,0,0,0,15.2442,8.3289"/><line x1="1823.834" x2="1806.029" y1="1811.544" y2="1802.283" fill="#1F1F22" stroke="#fff" stroke-linecap="round" stroke-linejoin="round" stroke-width="5"/><line x1="1763.586" x2="1823.834" y1="2311.53" y2="2141.158" fill="none" stroke="#fff" stroke-linecap="round" stroke-linejoin="round" stroke-width="5"/><line x1="2391.799" x2="2649.961" y1="2574.503" y2="2574.503" fill="none" stroke="#fff" stroke-linecap="round" stroke-linejoin="round" stroke-width="5"/><path fill="none" stroke="#fff" stroke-linecap="round" stroke-linejoin="round" stroke-width="5" d="M2158.9856,2285.9472c26.35-67.796,51.7536-116.4934,3.0142-187.3241"/><path fill="none" stroke="#fff" stroke-linecap="round" stroke-linejoin="round" stroke-width="5" d="M1789.0215,1677.2184a113.1338,113.1338,0,0,1,4.8533,52.4838"/></g></svg>